<svg width="24" height="24" viewBox="0 0 24 24" fill="none" xmlns="http://www.w3.org/2000/svg">
<g clip-path="url(#clip0_131_75)">
<path d="M21.9998 4.26666L19.5332 1.8C19.3211 1.59785 19.0394 1.48508 18.7465 1.48508C18.4536 1.48508 18.1719 1.59785 17.9598 1.8L15.7665 4H3.99984C3.64622 4 3.30708 4.14047 3.05703 4.39052C2.80698 4.64057 2.6665 4.97971 2.6665 5.33333V20C2.6665 20.3536 2.80698 20.6928 3.05703 20.9428C3.30708 21.1929 3.64622 21.3333 3.99984 21.3333H18.6665C19.0201 21.3333 19.3593 21.1929 19.6093 20.9428C19.8594 20.6928 19.9998 20.3536 19.9998 20V7.84L21.9998 5.84C22.2083 5.63125 22.3253 5.34832 22.3253 5.05333C22.3253 4.75834 22.2083 4.47541 21.9998 4.26666ZM12.5532 13.42L9.75984 14.04L10.4265 11.2733L16.7932 4.89333L18.9465 7.04666L12.5532 13.42ZM19.6665 6.28666L17.5132 4.13333L18.7465 2.9L20.8998 5.05333L19.6665 6.28666Z" fill="#007EF2"/>
</g>
<defs>
<clipPath id="clip0_131_75">
<rect width="24" height="24" fill="white"/>
</clipPath>
</defs>
</svg>
