<svg width="16" height="16" viewBox="0 0 16 16" fill="none" xmlns="http://www.w3.org/2000/svg">
<path opacity="0.4" d="M9.37065 10.4845L9.37363 10.4872L8.65741 11.2805C8.59006 11.3547 8.50754 11.414 8.41527 11.4545C8.323 11.495 8.22307 11.5158 8.12204 11.5156H7.01131V12.691C7.01131 12.878 6.93585 13.0574 6.80153 13.1896C6.66721 13.3219 6.48504 13.3962 6.29509 13.3962H5.10139V14.5716C5.10139 14.7586 5.02593 14.938 4.89161 15.0702C4.7573 15.2025 4.57512 15.2768 4.38517 15.2768H1.04282C0.852867 15.2768 0.670694 15.2025 0.536377 15.0702C0.40206 14.938 0.326601 14.7586 0.326601 14.5716V12.2796C0.32637 12.1869 0.344702 12.0951 0.380546 12.0094C0.416391 11.9236 0.469045 11.8457 0.535498 11.7801L5.3649 7.02484L5.36162 7.01456C5.65461 7.89256 6.18089 8.67736 6.88585 9.28753C7.5908 9.89769 8.44874 10.311 9.37065 10.4845Z" fill="black" fill-opacity="0.5"/>
<path d="M10.3536 0.232132C9.31485 0.232132 8.29938 0.535441 7.43565 1.1037C6.57191 1.67197 5.89872 2.47966 5.50119 3.42464C5.10366 4.36963 4.99964 5.40946 5.2023 6.41266C5.40496 7.41585 5.90519 8.33734 6.63974 9.0606C7.37428 9.78386 8.31014 10.2764 9.32898 10.476C10.3478 10.6755 11.4039 10.5731 12.3636 10.1817C13.3233 9.79023 14.1436 9.12738 14.7208 8.27691C15.2979 7.42645 15.6059 6.42657 15.6059 5.40373C15.6059 4.03214 15.0526 2.71672 14.0676 1.74686C13.0826 0.776995 11.7466 0.232132 10.3536 0.232132V0.232132ZM11.7861 5.40373C11.5028 5.40373 11.2258 5.32101 10.9903 5.16603C10.7547 5.01105 10.5711 4.79077 10.4627 4.53304C10.3543 4.27532 10.3259 3.99173 10.3812 3.71813C10.4364 3.44453 10.5729 3.19322 10.7732 2.99596C10.9735 2.79871 11.2288 2.66438 11.5066 2.60996C11.7845 2.55554 12.0725 2.58347 12.3343 2.69022C12.596 2.79697 12.8197 2.97775 12.9771 3.2097C13.1345 3.44164 13.2185 3.71433 13.2185 3.99329C13.2185 4.36736 13.0676 4.72611 12.799 4.99062C12.5303 5.25513 12.166 5.40373 11.7861 5.40373Z" fill="black" fill-opacity="0.5"/>
</svg>
