<svg width="15" height="17" viewBox="0 0 15 17" fill="none" xmlns="http://www.w3.org/2000/svg">
<g clip-path="url(#clip0_2_62)">
<path opacity="0.4" d="M11.2777 4.04761C11.2777 4.84109 11.0558 5.61675 10.64 6.2765C10.2243 6.93626 9.6334 7.45048 8.94207 7.75413C8.25073 8.05778 7.49001 8.13723 6.75609 7.98243C6.02217 7.82763 5.34803 7.44553 4.8189 6.88446C4.28978 6.32338 3.92944 5.60853 3.78345 4.83029C3.63747 4.05206 3.71239 3.2454 3.99875 2.51232C4.28511 1.77924 4.77005 1.15267 5.39223 0.711833C6.01442 0.271 6.74591 0.0357056 7.4942 0.0357056C8.49764 0.0357056 9.45997 0.458387 10.1695 1.21077C10.879 1.96314 11.2777 2.98359 11.2777 4.04761Z" fill="black" fill-opacity="0.5"/>
<path d="M10.1426 9.06248H9.64899C8.97336 9.39283 8.2382 9.56389 7.4942 9.56389C6.7502 9.56389 6.01505 9.39283 5.33941 9.06248H4.84579C3.79226 9.06273 2.78194 9.50663 2.03698 10.2966C1.29202 11.0865 0.873404 12.1578 0.873169 13.275L0.873169 14.5789C0.873169 14.9779 1.02265 15.3605 1.28872 15.6427C1.5548 15.9248 1.91567 16.0833 2.29196 16.0833H12.6964C13.0727 16.0833 13.4336 15.9248 13.6997 15.6427C13.9658 15.3605 14.1152 14.9779 14.1152 14.5789V13.275C14.115 12.1578 13.6964 11.0865 12.9514 10.2966C12.2065 9.50663 11.1961 9.06273 10.1426 9.06248Z" fill="black" fill-opacity="0.5"/>
</g>
<defs>
<clipPath id="clip0_2_62">
<rect width="13.2421" height="16.0476" fill="white" transform="translate(0.873169 0.0357056)"/>
</clipPath>
</defs>
</svg>
